<svg width="20" height="20" fill="none" xmlns="http://www.w3.org/2000/svg"><path d="M18.763 10.509c.394-.52.612-1.158.612-1.821 0-1.053-.588-2.049-1.535-2.604a1.586 1.586 0 00-.804-.218h-5.62l.14-2.88a2.509 2.509 0 00-.691-1.862A2.499 2.499 0 009.039.341c-1.219 0-2.297.82-2.62 1.995L4.405 9.625h-3.03a.75.75 0 00-.75.75v8.531c0 .415.335.75.75.75h14.093c.216 0 .427-.042.621-.126a3.014 3.014 0 001.709-3.643 3.016 3.016 0 00.485-2.688c.394-.52.611-1.158.611-1.82a3.202 3.202 0 00-.13-.87zm-16.45 7.46v-6.657H4.21v6.657H2.312zm14.915-8.274l-.513.446.326.595a1.338 1.338 0 01-.298 1.648l-.513.445.325.595a1.338 1.338 0 01-.298 1.648l-.512.445.325.596a1.332 1.332 0 01-.626 1.854H5.711v-6.73l2.332-8.449a1.034 1.034 0 01.989-.757.833.833 0 01.837.872l-.225 4.65h7.368c.418.256.675.687.675 1.135 0 .386-.168.752-.459 1.007z" fill="#EFF3F5"/></svg>