<svg width="32" height="32" viewBox="0 0 32 32" fill="none" xmlns="http://www.w3.org/2000/svg">
<path d="M23.3728 19.4751C23.3728 20.8191 23.7552 21.3551 24.7552 21.3551C26.984 21.3551 28.4032 18.5151 28.4032 13.7919C28.4032 6.57267 23.1424 3.11667 16.5744 3.11667C9.81758 3.11667 3.67198 7.64787 3.67198 16.2111C3.67198 24.3903 9.04798 28.8447 17.304 28.8447C20.1072 28.8447 21.9888 28.5375 24.8672 27.5775L25.4848 30.1487C22.6432 31.0719 19.6064 31.3391 17.2656 31.3391C6.43678 31.3391 0.63678 25.3871 0.63678 16.2095C0.63678 6.95507 7.35838 0.657471 16.6128 0.657471C26.2512 0.657471 31.3568 6.41747 31.3568 13.4831C31.3568 19.4735 29.4768 24.0431 23.5632 24.0431C20.8736 24.0431 19.1088 22.9679 18.8784 20.5855C18.1872 23.2351 16.344 24.0431 13.8464 24.0431C10.5056 24.0431 7.70238 21.4687 7.70238 16.2863C7.70238 11.0639 10.1616 7.83827 14.5776 7.83827C16.92 7.83827 18.3792 8.75987 19.0288 10.2191L20.144 8.18387H23.3696V19.4751H23.3728ZM18.6512 14.4063C18.6512 12.2959 17.0752 11.4111 15.7696 11.4111C14.3488 11.4111 12.776 12.5615 12.776 15.9423C12.776 18.6303 13.9664 20.1279 15.7696 20.1279C17.0368 20.1279 18.6512 19.3215 18.6512 17.0943V14.4063Z" fill="#6E105E"/>
</svg>
