<svg width="26" height="32" viewBox="0 0 26 32" fill="none" xmlns="http://www.w3.org/2000/svg">
<path d="M13 19C16.309 19 19 16.0848 19 12.5C19 8.91525 16.309 6 13 6C9.691 6 7 8.91525 7 12.5C7 16.0848 9.691 19 13 19ZM13 9.25C14.6545 9.25 16 10.7076 16 12.5C16 14.2924 14.6545 15.75 13 15.75C11.3455 15.75 10 14.2924 10 12.5C10 10.7076 11.3455 9.25 13 9.25Z" fill="#6E105E"/>
<path d="M12.0575 31.7027C12.3325 31.896 12.662 32 13 32C13.338 32 13.6675 31.896 13.9425 31.7027C14.4365 31.3586 26.047 23.1042 25.9999 12.8001C25.9999 5.74245 20.1678 0 13 0C5.8322 0 0.00014306 5.74245 0.00014306 12.7921C-0.0469814 23.1042 11.5635 31.3586 12.0575 31.7027ZM13 3.20003C18.3771 3.20003 22.7499 7.50566 22.7499 12.8081C22.784 19.909 15.6195 26.285 13 28.3762C10.3822 26.2834 3.21598 19.9058 3.25011 12.8001C3.25011 7.50566 7.62293 3.20003 13 3.20003Z" fill="#6E105E"/>
</svg>
