<svg width="28" height="28" viewBox="0 0 28 28" fill="none" xmlns="http://www.w3.org/2000/svg">
<path d="M15.332 8.66667C18.136 8.66667 19.332 9.86267 19.332 12.6667H21.9987C21.9987 8.36667 19.632 6 15.332 6V8.66667Z" fill="#6E105E"/>
<path d="M20.088 27.3321H20.1253C20.8293 27.3321 21.4947 27.0547 21.9987 26.5507L25.6147 22.9347C25.7386 22.811 25.8369 22.6641 25.904 22.5023C25.9711 22.3406 26.0056 22.1672 26.0056 21.9921C26.0056 21.817 25.9711 21.6436 25.904 21.4818C25.8369 21.3201 25.7386 21.1731 25.6147 21.0494L20.2813 15.7161C20.1576 15.5922 20.0107 15.4938 19.8489 15.4268C19.6872 15.3597 19.5138 15.3251 19.3387 15.3251C19.1636 15.3251 18.9902 15.3597 18.8284 15.4268C18.6667 15.4938 18.5197 15.5922 18.396 15.7161L16.2707 17.8414C15.2853 17.5481 13.4467 16.8814 12.2813 15.7161C11.116 14.5507 10.4493 12.7121 10.156 11.7267L12.2813 9.60142C12.4053 9.4777 12.5036 9.33076 12.5707 9.16901C12.6377 9.00725 12.6723 8.83386 12.6723 8.65875C12.6723 8.48364 12.6377 8.31024 12.5707 8.14849C12.5036 7.98674 12.4053 7.8398 12.2813 7.71608L6.948 2.38275C6.6931 2.14215 6.35585 2.00813 6.00534 2.00813C5.65482 2.00813 5.31757 2.14215 5.06267 2.38275L1.448 5.99875C0.941337 6.50541 0.656004 7.20142 0.666671 7.91208C0.697337 9.81075 1.2 16.4054 6.39734 21.6027C11.5947 26.8001 18.1893 27.3014 20.088 27.3321ZM6.00667 5.21075L9.45467 8.65875L7.73067 10.3827C7.57378 10.5392 7.45853 10.7324 7.39542 10.9448C7.33231 11.1572 7.32334 11.382 7.36934 11.5987C7.40134 11.7521 8.184 15.3881 10.3973 17.6014C12.6107 19.8147 16.2467 20.5974 16.4 20.6294C16.6167 20.6757 16.8416 20.6668 17.054 20.6037C17.2665 20.5406 17.4597 20.4252 17.616 20.2681L19.34 18.5441L22.788 21.9921L20.1133 24.6654C18.4493 24.6374 12.756 24.1908 8.28267 19.7161C3.79467 15.2281 3.36 9.51475 3.33334 7.88408L6.00667 5.21075ZM24.6653 12.6654H27.332C27.332 5.82541 22.168 0.666748 15.3187 0.666748V3.33341C20.7347 3.33341 24.6653 7.25741 24.6653 12.6654Z" fill="#6E105E"/>
</svg>
