<svg width="20" height="20" viewBox="0 0 20 20" fill="none" xmlns="http://www.w3.org/2000/svg">
<path d="M18.7633 10.5086C19.157 9.98832 19.375 9.35082 19.375 8.68754C19.375 7.6352 18.7867 6.6391 17.8398 6.08364C17.5961 5.94066 17.3185 5.8654 17.0359 5.86567H11.4156L11.5563 2.9852C11.5891 2.2891 11.343 1.62817 10.8648 1.12426C10.6302 0.875889 10.3471 0.678275 10.0331 0.543632C9.71905 0.408989 9.38074 0.340177 9.03906 0.341448C7.82031 0.341448 6.74219 1.16176 6.41875 2.33598L4.40547 9.62504H1.375C0.960156 9.62504 0.625 9.9602 0.625 10.375V18.9063C0.625 19.3211 0.960156 19.6563 1.375 19.6563H15.468C15.6836 19.6563 15.8945 19.6141 16.0891 19.5297C17.2047 19.0539 17.9242 17.9641 17.9242 16.7547C17.9242 16.4594 17.882 16.1688 17.7977 15.8875C18.1914 15.3672 18.4094 14.7297 18.4094 14.0664C18.4094 13.7711 18.3672 13.4805 18.2828 13.1993C18.6766 12.6789 18.8945 12.0414 18.8945 11.3782C18.8898 11.0829 18.8477 10.7899 18.7633 10.5086ZM2.3125 17.9688V11.3125H4.21094V17.9688H2.3125ZM17.2281 9.69536L16.7148 10.1407L17.0406 10.736C17.148 10.9321 17.2036 11.1523 17.2023 11.3758C17.2023 11.7625 17.0336 12.1305 16.743 12.3836L16.2297 12.8289L16.5555 13.4243C16.6628 13.6204 16.7185 13.8406 16.7172 14.0641C16.7172 14.4508 16.5484 14.8188 16.2578 15.0719L15.7445 15.5172L16.0703 16.1125C16.1776 16.3086 16.2333 16.5288 16.232 16.7524C16.232 17.2774 15.9227 17.7508 15.4445 17.9664H5.71094V11.2375L8.04297 2.78832C8.1031 2.57176 8.23219 2.3807 8.41066 2.2441C8.58914 2.10749 8.80728 2.03278 9.03203 2.03129C9.21016 2.03129 9.38594 2.08285 9.52656 2.18832C9.75859 2.36176 9.88281 2.62426 9.86875 2.90317L9.64375 7.55317H17.0125C17.4297 7.80864 17.6875 8.23989 17.6875 8.68754C17.6875 9.07426 17.5188 9.43989 17.2281 9.69536Z" fill="#EFF3F5"/>
</svg>
