<svg width="32" height="32" fill="none" xmlns="http://www.w3.org/2000/svg"><path d="M23.373 19.475c0 1.344.382 1.88 1.382 1.88 2.229 0 3.648-2.84 3.648-7.563 0-7.22-5.26-10.675-11.829-10.675-6.756 0-12.902 4.53-12.902 13.094 0 8.18 5.376 12.634 13.632 12.634 2.803 0 4.685-.307 7.563-1.267l.618 2.57c-2.842.924-5.879 1.191-8.22 1.191C6.438 31.34.638 25.387.638 16.21.637 6.955 7.358.657 16.613.657c9.638 0 14.744 5.76 14.744 12.826 0 5.99-1.88 10.56-7.794 10.56-2.69 0-4.454-1.075-4.685-3.457-.69 2.65-2.534 3.457-5.032 3.457-3.34 0-6.144-2.574-6.144-7.757 0-5.222 2.46-8.448 6.876-8.448 2.342 0 3.801.922 4.45 2.381l1.116-2.035h3.226v11.291h.003zm-4.722-5.069c0-2.11-1.576-2.995-2.881-2.995-1.421 0-2.994 1.15-2.994 4.531 0 2.688 1.19 4.186 2.994 4.186 1.267 0 2.881-.806 2.881-3.034v-2.688z" fill="#6E105E"/></svg>