<svg width="26" height="32" fill="none" xmlns="http://www.w3.org/2000/svg"><path d="M13 19c3.309 0 6-2.915 6-6.5S16.309 6 13 6s-6 2.915-6 6.5S9.691 19 13 19zm0-9.75c1.655 0 3 1.458 3 3.25s-1.345 3.25-3 3.25-3-1.458-3-3.25 1.345-3.25 3-3.25z" fill="#6E105E"/><path d="M12.057 31.703a1.64 1.64 0 001.886 0C14.437 31.359 26.047 23.104 26 12.8 26 5.742 20.168 0 13 0S0 5.742 0 12.792c-.047 10.312 11.563 18.567 12.057 18.91zM13 3.2c5.377 0 9.75 4.306 9.75 9.608.034 7.101-7.13 13.477-9.75 15.568-2.618-2.093-9.784-8.47-9.75-15.576 0-5.294 4.373-9.6 9.75-9.6z" fill="#6E105E"/></svg>