<svg width="28" height="28" fill="none" xmlns="http://www.w3.org/2000/svg"><path d="M15.332 8.667c2.804 0 4 1.196 4 4h2.667c0-4.3-2.367-6.667-6.667-6.667v2.667z" fill="#6E105E"/><path d="M20.088 27.332h.037c.704 0 1.37-.277 1.874-.781l3.616-3.616a1.332 1.332 0 000-1.886l-5.334-5.333a1.33 1.33 0 00-1.885 0l-2.125 2.125c-.986-.293-2.824-.96-3.99-2.125-1.165-1.165-1.832-3.004-2.125-3.99l2.125-2.125a1.331 1.331 0 000-1.885L6.948 2.383a1.373 1.373 0 00-1.885 0L1.448 5.999a2.665 2.665 0 00-.781 1.913c.03 1.899.533 8.493 5.73 13.69 5.198 5.198 11.792 5.7 13.691 5.73zM6.007 5.211l3.448 3.448-1.724 1.724a1.328 1.328 0 00-.362 1.216c.032.153.815 3.79 3.028 6.002 2.214 2.214 5.85 2.996 6.003 3.028a1.325 1.325 0 001.216-.36l1.724-1.725 3.448 3.448-2.675 2.673c-1.664-.028-7.357-.474-11.83-4.949C3.795 15.228 3.36 9.515 3.333 7.884l2.674-2.673zm18.658 7.454h2.667c0-6.84-5.164-11.998-12.013-11.998v2.666c5.416 0 9.346 3.924 9.346 9.332z" fill="#6E105E"/></svg>