<svg width="24" height="24" fill="none" xmlns="http://www.w3.org/2000/svg"><path fill-rule="evenodd" clip-rule="evenodd" d="M23.435 5.685c.178-.574 0-.992-.787-.992h-2.619c-.66 0-.965.366-1.143.757 0 0-1.348 3.34-3.228 5.506-.61.627-.89.836-1.22.836-.179 0-.408-.21-.408-.783V5.658c0-.678-.202-.992-.762-.992H9.15a.638.638 0 00-.661.627c0 .652.94.81 1.042 2.636v3.969c0 .861-.15 1.018-.483 1.018-.89 0-3.05-3.366-4.346-7.202-.252-.76-.508-1.048-1.169-1.048H.89c-.763 0-.89.366-.89.757 0 .705.89 4.254 4.143 8.951 2.16 3.209 5.236 4.933 8.006 4.933 1.679 0 1.882-.391 1.882-1.044v-2.427c0-.783.152-.913.686-.913.381 0 1.067.208 2.618 1.748 1.779 1.827 2.084 2.662 3.075 2.662h2.619c.762 0 1.118-.391.915-1.148-.229-.757-1.093-1.853-2.212-3.158-.61-.73-1.525-1.54-1.805-1.93-.38-.523-.279-.731 0-1.201-.025 0 3.178-4.646 3.508-6.213" fill="#EFF3F5"/></svg>