<svg width="64" height="64" fill="none" xmlns="http://www.w3.org/2000/svg"><path d="M50.087 64H13.913C6.261 64 0 57.74 0 50.087V13.913C0 6.261 6.26 0 13.913 0h36.174C57.739 0 64 6.26 64 13.913v36.174C64 57.739 57.74 64 50.087 64z" fill="url(#paint0_radial)"/><path d="M32 12.522c6.4 0 7.096 0 9.6.139 2.365.14 3.617.556 4.452.835 1.113.417 1.948.974 2.783 1.808.834.835 1.39 1.67 1.808 2.783.279.835.696 2.087.835 4.452V32c0 6.4 0 7.096-.139 9.6-.14 2.365-.557 3.617-.835 4.452-.417 1.113-.974 1.948-1.808 2.783-.835.835-1.67 1.391-2.783 1.809-.835.278-2.087.695-4.452.834H32c-6.4 0-7.096 0-9.6-.139-2.365-.139-3.618-.556-4.452-.835-1.113-.417-1.948-.973-2.783-1.808-.835-.835-1.391-1.67-1.809-2.783-.278-.835-.695-2.087-.834-4.452V32c0-6.4 0-7.097.139-9.6.139-2.366.556-3.618.835-4.453.417-1.113.973-1.948 1.808-2.783.835-.834 1.67-1.391 2.783-1.808.835-.279 2.087-.696 4.452-.835h9.46zm0-4.174c-6.4 0-7.235 0-9.74.139-2.504.14-4.173.557-5.704 1.113-1.53.557-2.921 1.391-4.174 2.783-1.252 1.391-2.086 2.643-2.782 4.174-.557 1.53-.974 3.2-1.113 5.704-.14 2.504-.14 3.34-.14 9.74s0 7.234.14 9.738c.139 2.505.556 4.174 1.113 5.705.556 1.53 1.391 2.921 2.782 4.173 1.253 1.253 2.644 2.087 4.174 2.783 1.53.557 3.2.974 5.705 1.113 2.504.14 3.339.14 9.739.14s7.235 0 9.739-.14c2.504-.139 4.174-.556 5.704-1.113 1.53-.556 2.922-1.391 4.174-2.782 1.252-1.253 2.087-2.644 2.783-4.174.556-1.53.974-3.2 1.113-5.705.139-2.504.139-3.339.139-9.739s0-7.235-.14-9.74c-.138-2.503-.556-4.173-1.112-5.703-.557-1.53-1.392-2.922-2.783-4.174-1.391-1.252-2.643-2.087-4.174-2.783-1.53-.556-3.2-.974-5.704-1.113-2.504-.14-3.34-.14-9.74-.14z" fill="#fff"/><path d="M32 19.478A12.47 12.47 0 0019.478 32 12.47 12.47 0 0032 44.522 12.47 12.47 0 0044.522 32 12.47 12.47 0 0032 19.478zm0 20.87c-4.591 0-8.348-3.757-8.348-8.348 0-4.591 3.756-8.348 8.348-8.348 4.591 0 8.348 3.757 8.348 8.348 0 4.591-3.757 8.348-8.348 8.348zM44.522 22.26a2.783 2.783 0 100-5.564 2.783 2.783 0 000 5.565z" fill="#fff"/><defs><radialGradient id="paint0_radial" cx="0" cy="0" r="1" gradientUnits="userSpaceOnUse" gradientTransform="matrix(62.35612 -74.16843 48.99453 41.1915 13.23 76.933)"><stop offset=".073" stop-color="#EACC7B"/><stop offset=".184" stop-color="#ECAA59"/><stop offset=".307" stop-color="#EF802E"/><stop offset=".358" stop-color="#EF6D3A"/><stop offset=".46" stop-color="#F04B50"/><stop offset=".516" stop-color="#F03E58"/><stop offset=".689" stop-color="#DB359E"/><stop offset=".724" stop-color="#CE37A4"/><stop offset=".789" stop-color="#AC3CB4"/><stop offset=".877" stop-color="#7544CF"/><stop offset=".98" stop-color="#2B4FF2"/></radialGradient></defs></svg>