<svg width="64" height="64" viewBox="0 0 64 64" fill="none" xmlns="http://www.w3.org/2000/svg">
<path d="M50.087 64H13.913C6.26087 64 0 57.7391 0 50.087V13.913C0 6.26087 6.26087 0 13.913 0H50.087C57.7391 0 64 6.26087 64 13.913V50.087C64 57.7391 57.7391 64 50.087 64Z" fill="url(#paint0_radial)"/>
<path d="M31.9998 12.5218C38.3998 12.5218 39.0955 12.5218 41.5998 12.6609C43.965 12.8001 45.2172 13.2175 46.052 13.4957C47.165 13.9131 47.9998 14.4696 48.8346 15.3044C49.6694 16.1392 50.2259 16.974 50.6433 18.087C50.9216 18.9218 51.339 20.174 51.4781 22.5392C51.4781 24.9044 51.4781 25.6001 51.4781 32.0001C51.4781 38.4001 51.4781 39.0957 51.339 41.6001C51.1998 43.9653 50.7824 45.2175 50.5042 46.0522C50.0868 47.1653 49.5303 48.0001 48.6955 48.8349C47.8607 49.6696 47.0259 50.2262 45.9129 50.6436C45.0781 50.9218 43.8259 51.3392 41.4607 51.4783C39.0955 51.4783 38.3998 51.4783 31.9998 51.4783C25.5998 51.4783 24.9042 51.4783 22.3998 51.3392C20.0346 51.2001 18.7824 50.7827 17.9477 50.5044C16.8346 50.087 15.9998 49.5305 15.165 48.6957C14.3303 47.8609 13.7737 47.0262 13.3564 45.9131C13.0781 45.0783 12.6607 43.8262 12.5216 41.4609C12.5216 39.0957 12.5216 38.4001 12.5216 32.0001C12.5216 25.6001 12.5216 24.9044 12.6607 22.4001C12.7998 20.0349 13.2172 18.7827 13.4955 17.9479C13.9129 16.8349 14.4694 16.0001 15.3042 15.1653C16.139 14.3305 16.9737 13.774 18.0868 13.3566C18.9216 13.0783 20.1737 12.6609 22.539 12.5218C24.9042 12.5218 25.5998 12.5218 31.9998 12.5218ZM31.9998 8.3479C25.5998 8.3479 24.765 8.3479 22.2607 8.48703C19.7564 8.62616 18.0868 9.04355 16.5564 9.60007C15.0259 10.1566 13.6346 10.9914 12.3824 12.3827C11.1303 13.774 10.2955 15.0262 9.59983 16.5566C9.04331 18.087 8.62592 19.7566 8.48679 22.2609C8.34766 24.7653 8.34766 25.6001 8.34766 32.0001C8.34766 38.4001 8.34766 39.2349 8.48679 41.7392C8.62592 44.2436 9.04331 45.9131 9.59983 47.4436C10.1564 48.974 10.9911 50.3653 12.3824 51.6175C13.6346 52.8696 15.0259 53.7044 16.5564 54.4001C18.0868 54.9566 19.7564 55.374 22.2607 55.5131C24.765 55.6523 25.5998 55.6522 31.9998 55.6522C38.3998 55.6522 39.2346 55.6523 41.739 55.5131C44.2433 55.374 45.9129 54.9566 47.4433 54.4001C48.9737 53.8436 50.365 53.0088 51.6172 51.6175C52.8694 50.3653 53.7042 48.974 54.3998 47.4436C54.9564 45.9131 55.3737 44.2436 55.5129 41.7392C55.652 39.2349 55.652 38.4001 55.652 32.0001C55.652 25.6001 55.652 24.7653 55.5129 22.2609C55.3737 19.7566 54.9564 18.087 54.3998 16.5566C53.8433 15.0262 53.0085 13.6349 51.6172 12.3827C50.2259 11.1305 48.9737 10.2957 47.4433 9.60007C45.9129 9.04355 44.2433 8.62616 41.739 8.48703C39.2346 8.3479 38.3998 8.3479 31.9998 8.3479Z" fill="white"/>
<path d="M31.9998 19.4783C25.0432 19.4783 19.478 25.0435 19.478 32C19.478 38.9565 25.0432 44.5218 31.9998 44.5218C38.9563 44.5218 44.5215 38.9565 44.5215 32C44.5215 25.0435 38.9563 19.4783 31.9998 19.4783ZM31.9998 40.3478C27.4085 40.3478 23.6519 36.5913 23.6519 32C23.6519 27.4087 27.4085 23.6522 31.9998 23.6522C36.5911 23.6522 40.3476 27.4087 40.3476 32C40.3476 36.5913 36.5911 40.3478 31.9998 40.3478Z" fill="white"/>
<path d="M44.5219 22.2608C46.0587 22.2608 47.3045 21.015 47.3045 19.4782C47.3045 17.9414 46.0587 16.6956 44.5219 16.6956C42.9851 16.6956 41.7393 17.9414 41.7393 19.4782C41.7393 21.015 42.9851 22.2608 44.5219 22.2608Z" fill="white"/>
<defs>
<radialGradient id="paint0_radial" cx="0" cy="0" r="1" gradientUnits="userSpaceOnUse" gradientTransform="translate(13.2298 76.933) rotate(-49.945) scale(96.8981 64.0094)">
<stop offset="0.073" stop-color="#EACC7B"/>
<stop offset="0.184" stop-color="#ECAA59"/>
<stop offset="0.307" stop-color="#EF802E"/>
<stop offset="0.358" stop-color="#EF6D3A"/>
<stop offset="0.46" stop-color="#F04B50"/>
<stop offset="0.516" stop-color="#F03E58"/>
<stop offset="0.689" stop-color="#DB359E"/>
<stop offset="0.724" stop-color="#CE37A4"/>
<stop offset="0.789" stop-color="#AC3CB4"/>
<stop offset="0.877" stop-color="#7544CF"/>
<stop offset="0.98" stop-color="#2B4FF2"/>
</radialGradient>
</defs>
</svg>
