<svg width="64" height="64" viewBox="0 0 64 64" fill="none" xmlns="http://www.w3.org/2000/svg">
<path d="M50.087 64H13.913C6.26087 64 0 57.7391 0 50.087V13.913C0 6.26087 6.26087 0 13.913 0H50.087C57.7391 0 64 6.26087 64 13.913V50.087C64 57.7391 57.7391 64 50.087 64Z" fill="#1976D2"/>
<path d="M55.5274 20.1146C55.6181 19.8205 55.6615 19.5478 55.6496 19.3043C55.6201 18.5992 55.1293 18.0869 53.9743 18.0869H48.8143C47.5114 18.0869 46.9103 18.866 46.5594 19.6471C46.5594 19.6471 43.3428 26.1899 39.6354 30.5043C38.4331 31.7529 37.8221 31.7217 37.1716 31.7217C36.8228 31.7217 35.9417 31.3049 35.9417 30.1615V20.062C35.9417 18.7102 35.6007 18.0869 34.499 18.0869H25.3358C24.5337 18.0869 24.1158 18.7102 24.1158 19.3355C24.1158 20.6347 25.8858 20.9463 26.0868 24.5868V31.6438C26.0868 33.3579 25.7852 33.6695 25.1348 33.6695C23.3806 33.6695 19.9275 27.826 17.6155 20.1672C17.1149 18.6596 16.6142 18.0869 15.3114 18.0869H10.1021C8.59822 18.0869 8.3479 18.8154 8.3479 19.5945C8.3479 20.9989 9.53049 28.5915 15.9855 37.3217C20.6666 43.6521 26.8338 47.3043 32.2934 47.3043C35.6007 47.3043 35.9398 46.4726 35.9398 45.1734V39.3844C35.9417 37.8242 36.3024 37.5652 37.3549 37.5652C38.1059 37.5652 39.6373 38.0521 42.5938 41.4608C46.0036 45.3915 46.6225 47.3043 48.5777 47.3043H53.7378C54.9361 47.3043 55.624 46.8076 55.6516 45.8434C55.6575 45.598 55.622 45.3234 55.5412 45.0176C55.1589 43.8956 53.4047 41.1531 51.2169 38.5391C50.0047 37.0919 48.8083 35.6583 48.2584 34.8791C47.8899 34.3707 47.7499 34.0123 47.7677 33.6695C47.7854 33.3092 47.9746 32.9664 48.2584 32.4872C48.2072 32.4872 54.877 23.2331 55.5274 20.1146Z" fill="white"/>
</svg>
