<svg width="24" height="24" viewBox="0 0 24 24" fill="none" xmlns="http://www.w3.org/2000/svg">
<path fill-rule="evenodd" clip-rule="evenodd" d="M23.435 5.68502C23.613 5.11058 23.435 4.69299 22.6475 4.69299H20.029C19.3685 4.69299 19.0635 5.05863 18.8855 5.44974C18.8855 5.44974 17.5385 8.79048 15.6575 10.9564C15.0475 11.5828 14.768 11.7916 14.4375 11.7916C14.2595 11.7916 14.0305 11.5828 14.0305 11.0088V5.65803C14.0305 4.9797 13.8275 4.6665 13.268 4.6665H9.15001C8.74301 4.6665 8.48901 4.9797 8.48901 5.29289C8.48901 5.94525 9.42951 6.10211 9.53101 7.92882V11.898C9.53101 12.7591 9.38101 12.9165 9.04801 12.9165C8.15851 12.9165 5.99801 9.54979 4.70201 5.71354C4.45001 4.95373 4.19401 4.6665 3.533 4.6665H0.889501C0.127 4.6665 0 5.03164 0 5.42326C0 6.12808 0.889501 9.67711 4.14301 14.3745C6.30351 17.5828 9.37901 19.3072 12.1495 19.3072C13.8275 19.3072 14.0305 18.9156 14.0305 18.2632V15.8361C14.0305 15.0534 14.183 14.923 14.717 14.923C15.098 14.923 15.7845 15.1313 17.335 16.6713C19.114 18.498 19.419 19.3332 20.4105 19.3332H23.0285C23.791 19.3332 24.147 18.9416 23.9435 18.1848C23.715 17.428 22.8505 16.3321 21.732 15.0274C21.122 14.2971 20.207 13.4879 19.9275 13.0963C19.5465 12.5743 19.648 12.3655 19.9275 11.8959C19.902 11.8959 23.105 7.25049 23.435 5.68299" fill="#EFF3F5"/>
</svg>
