<svg width="50" height="50" fill="none" xmlns="http://www.w3.org/2000/svg"><g filter="url(#filter0_i)"><circle cx="25" cy="25" r="25" fill="url(#paint0_linear)"/><path d="M35.109 21.273c-.056-1.202-.232-2.425-.76-3.522a5.8 5.8 0 00-1.16-1.632 7.43 7.43 0 00-1.497-1.146c-1.203-.717-2.637-1.195-5.935-2.18C22.46 11.81 20.5 11.5 20.5 11.5v25.193l5.618 1.807s.007-13.978.007-21.059v-.267c0-.654.527-1.181 1.132-1.181h.035c.598 0 1.09.527 1.09 1.181v9.373c.773.372 2.053.654 2.94.64a3.36 3.36 0 001.687-.401c.534-.296.98-.727 1.293-1.252.35-.59.586-1.242.696-1.92.132-.759.139-1.553.11-2.34zM13.094 32.158c1.927-.69 6.279-2.075 6.279-2.075v-3.318s-5.379 1.743-7.826 2.608c-.604.218-1.216.415-1.807.668-.689.288-1.364.612-1.976 1.04a1.86 1.86 0 00-.647.711 1.22 1.22 0 00-.035.956c.141.359.408.654.71.886.549.415 1.203.668 1.857.858 2.003.665 4.105.981 6.215.935 1.02-.014 2.532-.133 3.516-.31v-2.952s-.773.175-2.904.879c-.323.105-.647.232-.984.302a7.39 7.39 0 01-1.52.155c-.456-.021-.927-.05-1.356-.218-.155-.07-.323-.155-.387-.324-.056-.14.021-.281.12-.38.197-.203.478-.316.745-.421z" fill="#EFF3F5"/><path d="M43 31.32c-.007-.421-.26-.787-.556-1.054-.499-.443-1.117-.724-1.736-.949-.387-.134-.654-.232-1.034-.352-1.772-.576-3.649-.787-5.505-.794-.563.021-1.624.035-2.18.098-1.54.176-4.732 1.083-4.732 1.083v3.431s4.746-1.518 6.785-2.236a6.64 6.64 0 012.13-.323c.458.014.929.05 1.365.218.154.063.316.155.386.316.064.183-.063.352-.204.457-.33.268-.752.373-1.139.52-2.882 1.02-9.33 3.144-9.33 3.144v3.304s8.24-2.784 12.01-4.134c.625-.232 1.258-.429 1.856-.731.555-.282 1.11-.605 1.532-1.076a1.39 1.39 0 00.352-.921z" fill="#EFF3F5"/></g><defs><linearGradient id="paint0_linear" x1="25" y1="0" x2="25" y2="50" gradientUnits="userSpaceOnUse"><stop stop-color="#2C6EE5"/><stop offset=".474" stop-color="#FEA3CA"/><stop offset=".656" stop-color="#FEBDA1"/><stop offset=".901" stop-color="#FE3914"/></linearGradient><filter id="filter0_i" x="0" y="0" width="52" height="52" filterUnits="userSpaceOnUse" color-interpolation-filters="sRGB"><feFlood flood-opacity="0" result="BackgroundImageFix"/><feBlend in="SourceGraphic" in2="BackgroundImageFix" result="shape"/><feColorMatrix in="SourceAlpha" values="0 0 0 0 0 0 0 0 0 0 0 0 0 0 0 0 0 0 127 0" result="hardAlpha"/><feOffset dx="5" dy="5"/><feGaussianBlur stdDeviation="1"/><feComposite in2="hardAlpha" operator="arithmetic" k2="-1" k3="1"/><feColorMatrix values="0 0 0 0 1 0 0 0 0 1 0 0 0 0 1 0 0 0 0.25 0"/><feBlend in2="shape" result="effect1_innerShadow"/></filter></defs></svg>