<svg width="50" height="50" fill="none" xmlns="http://www.w3.org/2000/svg"><g filter="url(#filter0_i)"><circle cx="25" cy="25" r="25" fill="url(#paint0_linear)"/><path d="M34.422 9.25H15.438c-3.46 0-6.188 2.729-6.188 6.188v18.984c0 3.459 2.729 6.328 6.188 6.328h18.984c3.459 0 6.328-2.87 6.328-6.328V15.438c0-3.46-2.87-6.188-6.328-6.188zm-3.797 25.594h-3.656c-2.99 0-5.063-1.665-5.063-5.344v-5.625h-2.531V20.5c2.989-.773 4.075-3.398 4.219-5.625h3.093v5.063h3.657v3.937h-3.657l-.027 4.958c0 1.538.773 2.069 2.012 2.069l1.953.004v3.938z" fill="#EFF3F5"/></g><defs><linearGradient id="paint0_linear" x1="25" y1="0" x2="25" y2="50" gradientUnits="userSpaceOnUse"><stop stop-color="#2C6EE5"/><stop offset=".474" stop-color="#FEA3CA"/><stop offset=".656" stop-color="#FEBDA1"/><stop offset=".901" stop-color="#FE3914"/></linearGradient><filter id="filter0_i" x="0" y="0" width="52" height="52" filterUnits="userSpaceOnUse" color-interpolation-filters="sRGB"><feFlood flood-opacity="0" result="BackgroundImageFix"/><feBlend in="SourceGraphic" in2="BackgroundImageFix" result="shape"/><feColorMatrix in="SourceAlpha" values="0 0 0 0 0 0 0 0 0 0 0 0 0 0 0 0 0 0 127 0" result="hardAlpha"/><feOffset dx="5" dy="5"/><feGaussianBlur stdDeviation="1"/><feComposite in2="hardAlpha" operator="arithmetic" k2="-1" k3="1"/><feColorMatrix values="0 0 0 0 1 0 0 0 0 1 0 0 0 0 1 0 0 0 0.25 0"/><feBlend in2="shape" result="effect1_innerShadow"/></filter></defs></svg>