<svg width="50" height="50" fill="none" xmlns="http://www.w3.org/2000/svg"><g filter="url(#filter0_i)"><circle cx="25" cy="25" r="25" fill="url(#paint0_linear)"/><path d="M37.982 15.343a7.705 7.705 0 01-.664-.386 9.346 9.346 0 01-1.707-1.45c-1.272-1.457-1.748-2.934-1.923-3.968h.007c-.146-.859-.086-1.414-.077-1.414h-5.796v22.414c0 .301 0 .599-.013.892 0 .037-.003.07-.005.11 0 .016 0 .033-.004.05v.013a4.922 4.922 0 01-2.476 3.906 4.837 4.837 0 01-2.399.633c-2.7 0-4.89-2.202-4.89-4.922 0-2.72 2.19-4.922 4.89-4.922.512 0 1.02.08 1.506.239l.007-5.902a10.769 10.769 0 00-8.297 2.427c-1 .868-1.84 1.904-2.482 3.06-.245.422-1.168 2.118-1.28 4.869-.07 1.562.399 3.18.622 3.848v.014c.141.394.686 1.738 1.574 2.87a11.78 11.78 0 002.51 2.37v-.015l.015.014c2.806 1.907 5.917 1.782 5.917 1.782.54-.022 2.343 0 4.392-.971 2.273-1.077 3.566-2.68 3.566-2.68a11.141 11.141 0 001.944-3.23c.524-1.379.7-3.032.7-3.693V19.41c.07.042 1.006.661 1.006.661s1.35.865 3.455 1.428c1.51.4 3.545.485 3.545.485V16.23c-.713.077-2.16-.148-3.643-.887z" fill="#EFF3F5"/></g><defs><linearGradient id="paint0_linear" x1="25" y1="0" x2="25" y2="50" gradientUnits="userSpaceOnUse"><stop stop-color="#2C6EE5"/><stop offset=".474" stop-color="#FEA3CA"/><stop offset=".656" stop-color="#FEBDA1"/><stop offset=".901" stop-color="#FE3914"/></linearGradient><filter id="filter0_i" x="0" y="0" width="52" height="52" filterUnits="userSpaceOnUse" color-interpolation-filters="sRGB"><feFlood flood-opacity="0" result="BackgroundImageFix"/><feBlend in="SourceGraphic" in2="BackgroundImageFix" result="shape"/><feColorMatrix in="SourceAlpha" values="0 0 0 0 0 0 0 0 0 0 0 0 0 0 0 0 0 0 127 0" result="hardAlpha"/><feOffset dx="5" dy="5"/><feGaussianBlur stdDeviation="1"/><feComposite in2="hardAlpha" operator="arithmetic" k2="-1" k3="1"/><feColorMatrix values="0 0 0 0 1 0 0 0 0 1 0 0 0 0 1 0 0 0 0.25 0"/><feBlend in2="shape" result="effect1_innerShadow"/></filter></defs></svg>