<svg width="50" height="50" fill="none" xmlns="http://www.w3.org/2000/svg"><g filter="url(#filter0_i)"><circle cx="25" cy="25" r="25" fill="url(#paint0_linear)"/><path d="M40.532 15.015c-.351-1.644-1.231-2.726-2.855-3.253-1.625-.527-4.565-.316-6.618 1.18-1.884 1.373-3.253 3.827-3.797 5.505a.28.28 0 00.207.36.282.282 0 00.154-.009c.757-.267 1.527-.499 2.39-.453 1.055.056 1.724.844 1.752 1.778.02.688-.014 1.314-.253 1.946-.756 2.017-1.942 3.97-3.344 5.678a5.1 5.1 0 01-.703.695c-.718.583-1.322.43-1.787-.365-.38-.653-.632-1.328-.857-2.045-.872-2.79-1.182-5.684-1.674-8.544-.232-1.37-.493-2.797-1.266-3.998-.816-1.251-2.012-1.729-3.516-1.547-1.033.126-2.595 1.23-3.361 1.855 0 0-3.938 3.296-5.753 5.017l1.49 1.899s1.26-.879 1.935-1.286c.4-.239.871-.288 1.209.014.317.274.676.633.866.991.4.752.787 1.538 1.033 2.346.928 3.113 1.794 6.233 2.659 9.368.443 1.601.977 3.105 1.968 4.468 1.358 1.87 2.785 2.298 4.987 1.51 1.787-.638 3.277-1.84 4.64-3.084 2.329-2.122 4.158-4.595 6.014-7.111 1.435-1.946 2.623-3.915 3.614-6.114.979-2.178 1.365-4.462.866-6.8z" fill="#EFF3F5"/></g><defs><linearGradient id="paint0_linear" x1="25" y1="0" x2="25" y2="50" gradientUnits="userSpaceOnUse"><stop stop-color="#2C6EE5"/><stop offset=".474" stop-color="#FEA3CA"/><stop offset=".656" stop-color="#FEBDA1"/><stop offset=".901" stop-color="#FE3914"/></linearGradient><filter id="filter0_i" x="0" y="0" width="52" height="52" filterUnits="userSpaceOnUse" color-interpolation-filters="sRGB"><feFlood flood-opacity="0" result="BackgroundImageFix"/><feBlend in="SourceGraphic" in2="BackgroundImageFix" result="shape"/><feColorMatrix in="SourceAlpha" values="0 0 0 0 0 0 0 0 0 0 0 0 0 0 0 0 0 0 127 0" result="hardAlpha"/><feOffset dx="5" dy="5"/><feGaussianBlur stdDeviation="1"/><feComposite in2="hardAlpha" operator="arithmetic" k2="-1" k3="1"/><feColorMatrix values="0 0 0 0 1 0 0 0 0 1 0 0 0 0 1 0 0 0 0.25 0"/><feBlend in2="shape" result="effect1_innerShadow"/></filter></defs></svg>