<svg width="50" height="50" fill="none" xmlns="http://www.w3.org/2000/svg"><g filter="url(#filter0_i)"><circle cx="25" cy="25" r="25" fill="url(#paint0_linear)"/><path fill-rule="evenodd" clip-rule="evenodd" d="M41.08 16.281c.25-.793 0-1.37-1.107-1.37h-3.682c-.929 0-1.358.505-1.608 1.045 0 0-1.895 4.613-4.54 7.603-.858.865-1.25 1.153-1.715 1.153-.25 0-.573-.288-.573-1.08v-7.388c0-.937-.285-1.369-1.072-1.369h-5.79c-.573 0-.93.432-.93.865 0 .9 1.322 1.117 1.465 3.64v5.48c0 1.188-.211 1.406-.68 1.406-1.25 0-4.288-4.649-6.11-9.945-.355-1.05-.715-1.446-1.645-1.446H9.376c-1.072 0-1.251.504-1.251 1.045 0 .973 1.25 5.873 5.826 12.359 3.038 4.43 7.363 6.81 11.26 6.81 2.359 0 2.644-.54 2.644-1.441v-3.351c0-1.081.215-1.261.966-1.261.536 0 1.501.287 3.681 2.414 2.502 2.522 2.931 3.675 4.325 3.675h3.682c1.072 0 1.573-.54 1.286-1.586-.32-1.044-1.537-2.558-3.11-4.359-.857-1.008-2.144-2.125-2.537-2.666-.536-.72-.393-1.01 0-1.657-.036 0 4.468-6.414 4.932-8.579" fill="#EFF3F5"/></g><defs><linearGradient id="paint0_linear" x1="25" y1="0" x2="25" y2="50" gradientUnits="userSpaceOnUse"><stop stop-color="#2C6EE5"/><stop offset=".474" stop-color="#FEA3CA"/><stop offset=".656" stop-color="#FEBDA1"/><stop offset=".901" stop-color="#FE3914"/></linearGradient><filter id="filter0_i" x="0" y="0" width="52" height="52" filterUnits="userSpaceOnUse" color-interpolation-filters="sRGB"><feFlood flood-opacity="0" result="BackgroundImageFix"/><feBlend in="SourceGraphic" in2="BackgroundImageFix" result="shape"/><feColorMatrix in="SourceAlpha" values="0 0 0 0 0 0 0 0 0 0 0 0 0 0 0 0 0 0 127 0" result="hardAlpha"/><feOffset dx="5" dy="5"/><feGaussianBlur stdDeviation="1"/><feComposite in2="hardAlpha" operator="arithmetic" k2="-1" k3="1"/><feColorMatrix values="0 0 0 0 1 0 0 0 0 1 0 0 0 0 1 0 0 0 0.25 0"/><feBlend in2="shape" result="effect1_innerShadow"/></filter></defs></svg>