<svg width="50" height="50" fill="none" xmlns="http://www.w3.org/2000/svg"><g filter="url(#filter0_i)"><circle cx="25" cy="25" r="25" fill="url(#paint0_linear)"/><path d="M40.086 17.418a3.936 3.936 0 00-2.779-2.78C34.855 13.976 25 13.976 25 13.976s-9.855 0-12.307.664a3.937 3.937 0 00-2.78 2.779A40.647 40.647 0 009.25 25a40.647 40.647 0 00.664 7.583 3.937 3.937 0 002.779 2.778c2.452.664 12.307.664 12.307.664s9.855 0 12.307-.664a3.937 3.937 0 002.78-2.778c.457-2.502.68-5.04.663-7.583a40.642 40.642 0 00-.664-7.582zM21.85 29.725v-9.45L30.029 25l-8.179 4.725z" fill="#EFF3F5"/></g><defs><linearGradient id="paint0_linear" x1="25" y1="0" x2="25" y2="50" gradientUnits="userSpaceOnUse"><stop stop-color="#2C6EE5"/><stop offset=".474" stop-color="#FEA3CA"/><stop offset=".656" stop-color="#FEBDA1"/><stop offset=".901" stop-color="#FE3914"/></linearGradient><filter id="filter0_i" x="0" y="0" width="52" height="52" filterUnits="userSpaceOnUse" color-interpolation-filters="sRGB"><feFlood flood-opacity="0" result="BackgroundImageFix"/><feBlend in="SourceGraphic" in2="BackgroundImageFix" result="shape"/><feColorMatrix in="SourceAlpha" values="0 0 0 0 0 0 0 0 0 0 0 0 0 0 0 0 0 0 127 0" result="hardAlpha"/><feOffset dx="5" dy="5"/><feGaussianBlur stdDeviation="1"/><feComposite in2="hardAlpha" operator="arithmetic" k2="-1" k3="1"/><feColorMatrix values="0 0 0 0 1 0 0 0 0 1 0 0 0 0 1 0 0 0 0.25 0"/><feBlend in2="shape" result="effect1_innerShadow"/></filter></defs></svg>