<svg width="26" height="49" viewBox="0 0 26 49" fill="none" xmlns="http://www.w3.org/2000/svg">
<path d="M20.375 26.0312H5.46594C5.93637 29.1641 7.05503 32.1643 8.75046 34.8404C10.4459 37.5165 12.6808 39.8096 15.3125 41.5731L19.8434 44.6106L17.0591 48.8125L12.5281 45.775C8.71423 43.2334 5.5867 39.7897 3.42305 35.7494C1.2594 31.7091 0.126537 27.1972 0.125 22.6141V5.78125C0.125 4.43859 0.658369 3.15093 1.60777 2.20152C2.55717 1.25212 3.84484 0.71875 5.1875 0.71875H20.375C21.7177 0.71875 23.0053 1.25212 23.9547 2.20152C24.9041 3.15093 25.4375 4.43859 25.4375 5.78125V20.9688C25.4375 22.3114 24.9041 23.5991 23.9547 24.5485C23.0053 25.4979 21.7177 26.0312 20.375 26.0312Z" fill="#D26600"/>
</svg>
