<svg width="50" height="50" viewBox="0 0 50 50" fill="none" xmlns="http://www.w3.org/2000/svg">
<g filter="url(#filter0_i)">
<circle cx="25" cy="25" r="25" fill="url(#paint0_linear)"/>
<path d="M35.1088 21.2734C35.0526 20.0711 34.8768 18.8477 34.3495 17.7508C34.0602 17.1439 33.6677 16.5919 33.1893 16.1195C32.7408 15.6754 32.2375 15.2903 31.6916 14.9734C30.4893 14.2563 29.0549 13.7781 25.7573 12.7938C22.4596 11.8094 20.5 11.5 20.5 11.5V36.693L26.118 38.5C26.118 38.5 26.125 24.5219 26.125 17.4414V17.1742C26.125 16.5203 26.6523 15.993 27.257 15.993H27.2922C27.8898 15.993 28.382 16.5203 28.382 17.1742V26.5469C29.1555 26.9195 30.4352 27.2008 31.3211 27.1867C31.909 27.2031 32.4909 27.0649 33.0086 26.7859C33.5429 26.4905 33.9893 26.0586 34.3023 25.5344C34.6515 24.9433 34.8876 24.2924 34.9984 23.6148C35.1299 22.8555 35.137 22.0609 35.1088 21.2734Z" fill="#EFF3F5"/>
<path d="M13.094 32.1576C15.0206 31.4686 19.373 30.0834 19.373 30.0834V26.7646C19.373 26.7646 13.994 28.5084 11.5472 29.3732C10.9425 29.5912 10.3308 29.7881 9.74013 30.0412C9.05107 30.3295 8.37607 30.6529 7.76435 31.0818C7.48991 31.2574 7.26675 31.5024 7.11748 31.792C7.04751 31.9408 7.00833 32.1022 7.00229 32.2665C6.99625 32.4309 7.02347 32.5947 7.08232 32.7482C7.22295 33.1068 7.49013 33.4021 7.79248 33.6342C8.34092 34.049 8.99482 34.3021 9.64873 34.492C11.6519 35.1569 13.7542 35.4732 15.8644 35.4271C16.8839 35.4131 18.3956 35.2936 19.38 35.1178V32.1646C19.38 32.1646 18.6065 32.3404 16.4761 33.0436C16.1526 33.149 15.8292 33.2756 15.4917 33.3459C14.9922 33.4499 14.4832 33.5017 13.9729 33.5006C13.5159 33.4795 13.0448 33.4514 12.6159 33.2826C12.4612 33.2123 12.2925 33.1279 12.2292 32.9592C12.1729 32.8186 12.2503 32.6779 12.3487 32.5795C12.5456 32.3756 12.8269 32.2631 13.094 32.1576Z" fill="#EFF3F5"/>
<path d="M43 31.3209C42.993 30.899 42.7398 30.5334 42.4445 30.2662C41.9453 29.8232 41.3266 29.542 40.7078 29.317C40.3211 29.1834 40.0539 29.085 39.6742 28.9654C37.9023 28.3889 36.025 28.1779 34.1687 28.1709C33.6062 28.192 32.5445 28.2061 31.9891 28.2693C30.4492 28.4451 27.257 29.3521 27.257 29.3521V32.7834C27.257 32.7834 32.0031 31.2646 34.0422 30.5475C34.73 30.3244 35.4496 30.2151 36.1727 30.224C36.6297 30.2381 37.1008 30.2732 37.5367 30.442C37.6914 30.5053 37.8531 30.5967 37.9234 30.7584C37.9867 30.9412 37.8602 31.11 37.7195 31.2154C37.3891 31.4826 36.9672 31.5881 36.5805 31.7357C33.6977 32.7553 27.25 34.8787 27.25 34.8787V38.1834C27.25 38.1834 35.4906 35.399 39.2594 34.049C39.8852 33.817 40.518 33.6201 41.1156 33.3178C41.6711 33.0365 42.2266 32.7131 42.6484 32.242C42.8744 31.9883 42.9995 31.6606 43 31.3209Z" fill="#EFF3F5"/>
</g>
<defs>
<filter id="filter0_i" x="0" y="0" width="52" height="52" filterUnits="userSpaceOnUse" color-interpolation-filters="sRGB">
<feFlood flood-opacity="0" result="BackgroundImageFix"/>
<feBlend mode="normal" in="SourceGraphic" in2="BackgroundImageFix" result="shape"/>
<feColorMatrix in="SourceAlpha" type="matrix" values="0 0 0 0 0 0 0 0 0 0 0 0 0 0 0 0 0 0 127 0" result="hardAlpha"/>
<feOffset dx="5" dy="5"/>
<feGaussianBlur stdDeviation="1"/>
<feComposite in2="hardAlpha" operator="arithmetic" k2="-1" k3="1"/>
<feColorMatrix type="matrix" values="0 0 0 0 1 0 0 0 0 1 0 0 0 0 1 0 0 0 0.25 0"/>
<feBlend mode="normal" in2="shape" result="effect1_innerShadow"/>
</filter>
<linearGradient id="paint0_linear" x1="25" y1="0" x2="25" y2="50" gradientUnits="userSpaceOnUse">
<stop stop-color="#2C6EE5"/>
<stop offset="0.473958" stop-color="#FEA3CA"/>
<stop offset="0.65625" stop-color="#FEBDA1"/>
<stop offset="0.901042" stop-color="#FE3914"/>
</linearGradient>
</defs>
</svg>
