<svg width="50" height="50" viewBox="0 0 50 50" fill="none" xmlns="http://www.w3.org/2000/svg">
<g filter="url(#filter0_i)">
<circle cx="25" cy="25" r="25" fill="url(#paint0_linear)"/>
<path d="M41.875 31.4132C41.0971 31.3562 40.3256 31.2313 39.5695 31.0398C37.6513 30.5737 35.7135 29.3341 34.7798 27.3534C34.2946 26.3247 34.5941 26.0462 35.6137 25.6659C36.6107 25.2953 37.709 25.123 38.2054 24.0487C38.6195 23.1515 38.2848 22.0968 37.4734 21.5533C36.3688 20.8129 35.3395 21.5385 34.1955 21.6988C34.4577 18.418 34.8044 15.4713 32.6015 12.7178C30.7755 10.4355 27.9067 9.25 25.0204 9.25C22.1341 9.25 19.2646 10.4355 17.44 12.7185C15.2336 15.479 15.5837 18.4265 15.846 21.7129C14.6985 21.5547 13.6797 20.8136 12.5673 21.5596C11.5323 22.2522 11.372 23.6521 12.1848 24.583C12.9977 25.514 14.4095 25.251 15.2399 26.0315C15.6962 26.4597 15.4853 26.9181 15.2153 27.4476C14.1972 29.4445 12.4548 30.6637 10.3047 31.0729C10.0234 31.1263 8.73602 31.2747 8.125 31.3295C8.125 31.982 8.16156 32.5094 8.23961 32.8574C8.44633 33.7757 9.10586 34.5154 9.90531 34.9738C10.6914 35.4238 12.4 35.4259 12.8359 36.0644C13.0469 36.3794 12.9597 36.9278 13.2107 37.2864C13.4659 37.6491 13.8546 37.8957 14.2914 37.972C15.5999 38.2258 16.9155 37.4657 18.2584 37.8243C19.3026 38.102 20.1231 38.9402 21.0189 39.5118C22.1095 40.2044 23.2928 40.6663 24.5929 40.7416C27.2718 40.897 28.8067 39.412 30.9618 38.1808C32.3329 37.3975 33.6442 37.9094 35.1018 37.9923C36.5151 38.0732 36.7563 37.342 37.1845 36.243C37.2311 36.1329 37.2673 36.0187 37.2927 35.902C37.3504 35.8746 37.4043 35.8398 37.453 35.7986C37.5937 35.6882 38.1948 35.6341 38.3502 35.5975C39.073 35.4259 39.7804 35.2354 40.4012 34.81C41.1965 34.2644 41.6423 33.5092 41.778 32.515C41.8411 32.1511 41.8736 31.7825 41.875 31.4132ZM21.625 16C22.2466 16 22.75 16.7552 22.75 17.6875C22.75 18.6198 22.2466 19.375 21.625 19.375C21.0034 19.375 20.5 18.6198 20.5 17.6875C20.5 16.7552 21.0034 16 21.625 16ZM28.9108 21.4633C27.8385 22.518 26.4498 23.1016 25 23.1016C24.2716 23.1003 23.5506 22.9546 22.8789 22.6729C22.2071 22.3912 21.5979 21.9791 21.0864 21.4605C20.9809 21.3549 20.9216 21.2118 20.9216 21.0625C20.9216 20.9132 20.9809 20.7701 21.0864 20.6645C21.192 20.559 21.3351 20.4997 21.4844 20.4997C21.6336 20.4997 21.7768 20.559 21.8823 20.6645C22.2895 21.0784 22.7747 21.4075 23.3098 21.6327C23.8449 21.8579 24.4194 21.9748 25 21.9766C26.1524 21.9766 27.2605 21.5097 28.1212 20.6617C28.2275 20.557 28.371 20.4988 28.5202 20.4999C28.6694 20.5011 28.812 20.5614 28.9168 20.6677C29.0215 20.774 29.0797 20.9175 29.0785 21.0667C29.0774 21.2159 29.0171 21.3586 28.9108 21.4633ZM28.375 19.375C27.7534 19.375 27.25 18.6191 27.25 17.6875C27.25 16.7559 27.7534 16 28.375 16C28.9966 16 29.5 16.7559 29.5 17.6875C29.5 18.6191 28.9966 19.375 28.375 19.375Z" fill="#EFF3F5"/>
</g>
<defs>
<filter id="filter0_i" x="0" y="0" width="52" height="52" filterUnits="userSpaceOnUse" color-interpolation-filters="sRGB">
<feFlood flood-opacity="0" result="BackgroundImageFix"/>
<feBlend mode="normal" in="SourceGraphic" in2="BackgroundImageFix" result="shape"/>
<feColorMatrix in="SourceAlpha" type="matrix" values="0 0 0 0 0 0 0 0 0 0 0 0 0 0 0 0 0 0 127 0" result="hardAlpha"/>
<feOffset dx="5" dy="5"/>
<feGaussianBlur stdDeviation="1"/>
<feComposite in2="hardAlpha" operator="arithmetic" k2="-1" k3="1"/>
<feColorMatrix type="matrix" values="0 0 0 0 1 0 0 0 0 1 0 0 0 0 1 0 0 0 0.25 0"/>
<feBlend mode="normal" in2="shape" result="effect1_innerShadow"/>
</filter>
<linearGradient id="paint0_linear" x1="25" y1="0" x2="25" y2="50" gradientUnits="userSpaceOnUse">
<stop stop-color="#2C6EE5"/>
<stop offset="0.473958" stop-color="#FEA3CA"/>
<stop offset="0.65625" stop-color="#FEBDA1"/>
<stop offset="0.901042" stop-color="#FE3914"/>
</linearGradient>
</defs>
</svg>
