<svg width="50" height="50" viewBox="0 0 50 50" fill="none" xmlns="http://www.w3.org/2000/svg">
<g filter="url(#filter0_i)">
<circle cx="25" cy="25" r="25" fill="url(#paint0_linear)"/>
<path d="M34.4219 9.25H15.4375C11.9788 9.25 9.25 11.9788 9.25 15.4375V34.4219C9.25 37.8805 11.9788 40.75 15.4375 40.75H34.4219C37.8805 40.75 40.75 37.8805 40.75 34.4219V15.4375C40.75 11.9788 37.8805 9.25 34.4219 9.25ZM30.625 34.8438H26.9688C23.9798 34.8438 21.9062 33.1787 21.9062 29.5V23.875H19.375V20.5C22.364 19.7266 23.4496 17.1025 23.5938 14.875H26.6875V19.9375H30.3438V23.875H26.6875L26.6601 28.8327C26.6601 30.3705 27.4335 30.902 28.6724 30.902L30.625 30.9062V34.8438Z" fill="#EFF3F5"/>
</g>
<defs>
<filter id="filter0_i" x="0" y="0" width="52" height="52" filterUnits="userSpaceOnUse" color-interpolation-filters="sRGB">
<feFlood flood-opacity="0" result="BackgroundImageFix"/>
<feBlend mode="normal" in="SourceGraphic" in2="BackgroundImageFix" result="shape"/>
<feColorMatrix in="SourceAlpha" type="matrix" values="0 0 0 0 0 0 0 0 0 0 0 0 0 0 0 0 0 0 127 0" result="hardAlpha"/>
<feOffset dx="5" dy="5"/>
<feGaussianBlur stdDeviation="1"/>
<feComposite in2="hardAlpha" operator="arithmetic" k2="-1" k3="1"/>
<feColorMatrix type="matrix" values="0 0 0 0 1 0 0 0 0 1 0 0 0 0 1 0 0 0 0.25 0"/>
<feBlend mode="normal" in2="shape" result="effect1_innerShadow"/>
</filter>
<linearGradient id="paint0_linear" x1="25" y1="0" x2="25" y2="50" gradientUnits="userSpaceOnUse">
<stop stop-color="#2C6EE5"/>
<stop offset="0.473958" stop-color="#FEA3CA"/>
<stop offset="0.65625" stop-color="#FEBDA1"/>
<stop offset="0.901042" stop-color="#FE3914"/>
</linearGradient>
</defs>
</svg>
