<svg width="50" height="50" viewBox="0 0 50 50" fill="none" xmlns="http://www.w3.org/2000/svg">
<g filter="url(#filter0_i)">
<circle cx="25" cy="25" r="25" fill="url(#paint0_linear)"/>
<path d="M37.9821 15.3433C37.7543 15.2255 37.5325 15.0965 37.3176 14.9566C36.6927 14.5434 36.1198 14.0567 35.6111 13.5067C34.3385 12.0505 33.8632 10.5733 33.6881 9.53898H33.6951C33.5489 8.68047 33.6093 8.125 33.6185 8.125H27.8219V30.5392C27.8219 30.8402 27.8219 31.1376 27.8093 31.4315C27.8093 31.468 27.8057 31.5018 27.8036 31.5412C27.8036 31.5573 27.8036 31.5742 27.8001 31.5911V31.6038C27.739 32.408 27.4812 33.1849 27.0494 33.8661C26.6176 34.5473 26.025 35.1119 25.3237 35.5103C24.5928 35.9261 23.7662 36.1442 22.9254 36.1431C20.2246 36.1431 18.0358 33.9409 18.0358 31.2213C18.0358 28.5016 20.2246 26.2994 22.9254 26.2994C23.4366 26.2989 23.9447 26.3793 24.4307 26.5377L24.4378 20.6357C22.9622 20.4451 21.4631 20.5624 20.0351 20.9801C18.6071 21.3979 17.2811 22.107 16.1409 23.0629C15.1418 23.931 14.3019 24.9667 13.6589 26.1236C13.4142 26.5455 12.491 28.2407 12.3792 30.992C12.3089 32.5537 12.7779 34.1716 13.0014 34.8402V34.8543C13.1421 35.248 13.687 36.5917 14.575 37.7245C15.2911 38.6331 16.1372 39.4313 17.0859 40.0933V40.0792L17.1 40.0933C19.9061 42.0002 23.0175 41.875 23.0175 41.875C23.5561 41.8532 25.3603 41.875 27.4092 40.904C29.6817 39.8275 30.9754 38.2237 30.9754 38.2237C31.8019 37.2654 32.4592 36.1733 32.9189 34.9942C33.4434 33.6154 33.6185 31.9616 33.6185 31.3007V19.4095C33.6888 19.4516 34.6253 20.0711 34.6253 20.0711C34.6253 20.0711 35.9746 20.9359 38.0798 21.4991C39.5901 21.8999 41.625 21.9843 41.625 21.9843V16.2299C40.912 16.3073 39.4643 16.0823 37.9821 15.3433Z" fill="#EFF3F5"/>
</g>
<defs>
<filter id="filter0_i" x="0" y="0" width="52" height="52" filterUnits="userSpaceOnUse" color-interpolation-filters="sRGB">
<feFlood flood-opacity="0" result="BackgroundImageFix"/>
<feBlend mode="normal" in="SourceGraphic" in2="BackgroundImageFix" result="shape"/>
<feColorMatrix in="SourceAlpha" type="matrix" values="0 0 0 0 0 0 0 0 0 0 0 0 0 0 0 0 0 0 127 0" result="hardAlpha"/>
<feOffset dx="5" dy="5"/>
<feGaussianBlur stdDeviation="1"/>
<feComposite in2="hardAlpha" operator="arithmetic" k2="-1" k3="1"/>
<feColorMatrix type="matrix" values="0 0 0 0 1 0 0 0 0 1 0 0 0 0 1 0 0 0 0.25 0"/>
<feBlend mode="normal" in2="shape" result="effect1_innerShadow"/>
</filter>
<linearGradient id="paint0_linear" x1="25" y1="0" x2="25" y2="50" gradientUnits="userSpaceOnUse">
<stop stop-color="#2C6EE5"/>
<stop offset="0.473958" stop-color="#FEA3CA"/>
<stop offset="0.65625" stop-color="#FEBDA1"/>
<stop offset="0.901042" stop-color="#FE3914"/>
</linearGradient>
</defs>
</svg>
