<svg width="50" height="50" viewBox="0 0 50 50" fill="none" xmlns="http://www.w3.org/2000/svg">
<g filter="url(#filter0_i)">
<circle cx="25" cy="25" r="25" fill="url(#paint0_linear)"/>
<path d="M40.532 15.0155C40.1805 13.3709 39.3009 12.2888 37.6767 11.7622C36.0524 11.2355 33.112 11.4458 31.0588 12.9427C29.1752 14.3145 27.8062 16.7691 27.262 18.4468C27.2459 18.4966 27.2441 18.5499 27.2568 18.6007C27.2694 18.6515 27.2959 18.6978 27.3334 18.7343C27.3709 18.7708 27.4178 18.7962 27.4689 18.8075C27.52 18.8188 27.5733 18.8156 27.6227 18.7983C28.3799 18.5312 29.1499 18.2991 30.0133 18.3448C31.068 18.4011 31.7367 19.1886 31.7648 20.123C31.7859 20.8114 31.7507 21.4372 31.5117 22.0693C30.7565 24.0858 29.5703 26.0391 28.1683 27.747C27.957 28.0011 27.7215 28.2339 27.4652 28.4424C26.7473 29.0253 26.1426 28.8713 25.6785 28.0768C25.2989 27.4236 25.0457 26.7493 24.8207 26.0321C23.9489 23.2428 23.6388 20.348 23.1466 17.4877C22.9146 16.118 22.6544 14.6914 21.881 13.4897C21.0653 12.2389 19.8693 11.7615 18.3653 11.9429C17.3317 12.0694 15.7701 13.1726 15.0037 13.7984C15.0037 13.7984 11.0662 17.094 9.25073 18.8152L10.7414 20.7137C10.7414 20.7137 12.0007 19.8354 12.6757 19.4276C13.0764 19.1893 13.5475 19.1401 13.885 19.4417C14.2021 19.7159 14.5607 20.0745 14.7506 20.4331C15.1514 21.1847 15.5381 21.9715 15.7842 22.7794C16.7123 25.8922 17.5778 29.0119 18.4427 32.1465C18.8857 33.7482 19.42 35.2522 20.4114 36.6148C21.7692 38.4844 23.1965 38.9126 25.398 38.1258C27.1846 37.4867 28.6753 36.2851 30.0386 35.0412C32.3667 32.9192 34.1955 30.4456 36.0517 27.9298C37.4868 25.9843 38.6751 24.0155 39.6665 21.8162C40.6445 19.6379 41.0313 17.3541 40.532 15.0155Z" fill="#EFF3F5"/>
</g>
<defs>
<filter id="filter0_i" x="0" y="0" width="52" height="52" filterUnits="userSpaceOnUse" color-interpolation-filters="sRGB">
<feFlood flood-opacity="0" result="BackgroundImageFix"/>
<feBlend mode="normal" in="SourceGraphic" in2="BackgroundImageFix" result="shape"/>
<feColorMatrix in="SourceAlpha" type="matrix" values="0 0 0 0 0 0 0 0 0 0 0 0 0 0 0 0 0 0 127 0" result="hardAlpha"/>
<feOffset dx="5" dy="5"/>
<feGaussianBlur stdDeviation="1"/>
<feComposite in2="hardAlpha" operator="arithmetic" k2="-1" k3="1"/>
<feColorMatrix type="matrix" values="0 0 0 0 1 0 0 0 0 1 0 0 0 0 1 0 0 0 0.25 0"/>
<feBlend mode="normal" in2="shape" result="effect1_innerShadow"/>
</filter>
<linearGradient id="paint0_linear" x1="25" y1="0" x2="25" y2="50" gradientUnits="userSpaceOnUse">
<stop stop-color="#2C6EE5"/>
<stop offset="0.473958" stop-color="#FEA3CA"/>
<stop offset="0.65625" stop-color="#FEBDA1"/>
<stop offset="0.901042" stop-color="#FE3914"/>
</linearGradient>
</defs>
</svg>
